<?xml version="1.0" encoding="utf-8"?>
<!-- Generator: Adobe Illustrator 24.3.0, SVG Export Plug-In . SVG Version: 6.00 Build 0)  -->
<svg version="1.1" id="Layer_1" xmlns="http://www.w3.org/2000/svg" xmlns:xlink="http://www.w3.org/1999/xlink" x="0px" y="0px"
	 viewBox="0 0 391.1 523" style="enable-background:new 0 0 391.1 523;" xml:space="preserve">
<style type="text/css">
	.st0{fill:#FF0000;}
	.st1{fill:#FFFFFF;}
	.st2{fill:none;stroke:#FFFFFF;stroke-width:16;stroke-miterlimit:10;}
	.st3{fill:none;stroke:#000000;stroke-width:40;stroke-miterlimit:10;}
	.st4{fill:none;}
	.st5{fill:#FF656C;}
	.st6{fill:#333333;}
</style>
<g>
	
		<ellipse transform="matrix(0.7071 -0.7071 0.7071 0.7071 -634.4376 -663.6942)" class="st0" cx="-1118.4" cy="434" rx="117" ry="69.6"/>
</g>
<g>
	
		<ellipse transform="matrix(0.7071 -0.7071 0.7071 0.7071 -660.5051 -726.6266)" class="st0" cx="-1207.4" cy="434" rx="69.6" ry="117"/>
</g>
<circle class="st1" cx="-1231.9" cy="406" r="29"/>
<ellipse cx="-1231.4" cy="409" rx="12.5" ry="11"/>
<polyline class="st2" points="-1299.9,484 -1225.9,476 -1198.9,448 "/>
<g>
	
		<ellipse transform="matrix(0.7071 -0.7071 0.7071 0.7071 -498.9157 -716.5154)" class="st0" cx="-1114.4" cy="244" rx="69.6" ry="117"/>
</g>
<g>
	
		<ellipse transform="matrix(0.7071 -0.7071 0.7071 0.7071 -524.9832 -779.4479)" class="st0" cx="-1203.4" cy="244" rx="117" ry="69.6"/>
</g>
<circle class="st1" cx="-1227.9" cy="272" r="29"/>
<ellipse cx="-1227.4" cy="269" rx="12.5" ry="11"/>
<rect x="-608.2" y="11" class="st4" width="174.3" height="162.1"/>
<text transform="matrix(1 0 0 1 -608.1732 147.6733)" style="font-family:'Comfortaa-Regular'; font-size:175px;">M</text>
<rect x="-608.2" y="63.9" class="st4" width="174.3" height="162.1"/>
<text transform="matrix(1 0 0 -1 -608.1732 89.3267)" style="font-family:'Comfortaa-Regular'; font-size:175px;">M</text>
<rect x="-609.2" y="-373" class="st4" width="174.3" height="162.1"/>
<text transform="matrix(1 0 0 1 -609.1732 -236.3267)" style="font-family:'Comfortaa-Bold'; font-size:175px;">M</text>
<rect x="-609.2" y="-397.1" class="st4" width="174.3" height="162.1"/>
<text transform="matrix(1 0 0 -1 -609.1732 -371.6733)" style="font-family:'Comfortaa-Bold'; font-size:175px;">M</text>
<polygon points="-314,117.5 -321,131.5 -314,145.5 -306.9,131.5 "/>
<path d="M-235.6,89.3c-2,0-3.6,0.7-5,2c-1.3,1.3-2,2.9-2,4.8v70.7c0,1.9,0.7,3.5,2,4.8c1.3,1.3,3,2,5,2c1.9,0,3.4-0.7,4.7-2
	c1.3-1.3,1.9-2.9,1.9-4.8V96.2c0-1.9-0.6-3.5-1.9-4.8C-232.2,90-233.8,89.3-235.6,89.3z"/>
<g>
	<path d="M-119.9-234.1c1.3,1.3,1.9,2.9,1.9,4.9v123c0,1.9-0.6,3.5-1.9,4.8c-1.3,1.3-2.9,2-4.7,2c-2,0-3.6-0.7-5-2
		c-1.3-1.3-2-2.9-2-4.8v-99l-48.7,99.4c-1.4,2.2-3.4,3.3-5.9,3.3c-2.9,0-5-1.4-6.3-4.2l-48.5-96.9v97.5c0,1.9-0.6,3.5-1.9,4.8
		c-1.3,1.3-2.9,2-4.9,2c-1.9,0-3.5-0.7-4.8-2c-1.3-1.3-2-2.9-2-4.8v-123c0-2,0.7-3.6,2-4.9c1.3-1.3,2.9-1.9,4.8-1.9
		c2.7,0,4.7,1.2,6.1,3.5l56,111.3l54.9-111.3c1.4-2.3,3.4-3.5,6.1-3.5C-122.8-236-121.2-235.4-119.9-234.1z"/>
</g>
<g>
	<path d="M-124.6-21c-2.7,0-4.7-1.2-6.1-3.5l-54.9-111.3l-56,111.3c-1.4,2.3-3.4,3.5-6.1,3.5c-1.9,0-3.5-0.6-4.8-1.9
		c-1.3-1.3-2-2.9-2-4.9v-123c0-1.9,0.7-3.5,2-4.8c1.3-1.3,2.9-2,4.8-2c2,0,3.6,0.7,4.9,2c1.3,1.3,1.9,2.9,1.9,4.8v97.5l48.5-96.9
		c1.3-2.8,3.4-4.2,6.3-4.2c2.6,0,4.5,1.1,5.9,3.3l48.7,99.4v-99c0-1.9,0.7-3.5,2-4.8c1.3-1.3,3-2,5-2c1.9,0,3.4,0.7,4.7,2
		c1.3,1.3,1.9,2.9,1.9,4.8v123c0,2-0.6,3.6-1.9,4.9C-121.2-21.6-122.8-21-124.6-21z"/>
</g>
<path d="M-604.6,5.5c2.6,0,4.8,0.9,6.5,2.6c1.7,1.7,2.6,3.7,2.6,6.1V-53l50,95.5l9.3-17.8l-60.2-114.4c-1.9-3-4.6-4.5-8.1-4.5
	c-2.5,0-4.6,0.8-6.4,2.4c-1.8,1.6-2.7,3.7-2.7,6.2v99.6c0-2.4,0.9-4.4,2.7-6.1C-609.2,6.3-607.1,5.5-604.6,5.5z"/>
<path d="M-517.2,148.6l-4.8,9.3l-4.9-9.3l-9.4,17.8l5.2,9.9c1.7,3.6,4.5,5.3,8.4,5.3c3.4,0,6.1-1.4,7.9-4.2l6.2-12.1L-517.2,148.6z"
	/>
<path d="M-434.4-91.7c-1.7-1.6-3.8-2.4-6.3-2.4c-3.6,0-6.3,1.5-8.1,4.5l-59.7,115.5l8.6,16.7L-450-55v69.1c0-2.4,0.9-4.4,2.7-6.1
	c1.8-1.7,4-2.6,6.6-2.6c2.5,0,4.6,0.9,6.3,2.6c1.7,1.7,2.6,3.7,2.6,6.1v-99.6C-431.9-88-432.7-90.1-434.4-91.7z"/>
<path d="M-604.6,216.1c2.6,0,4.8-0.9,6.5-2.6c1.7-1.7,2.6-3.7,2.6-6.1v67.1l50-95.5l9.3,17.8l-60.2,114.4c-1.9,3-4.6,4.5-8.1,4.5
	c-2.5,0-4.6-0.8-6.4-2.4c-1.8-1.6-2.7-3.7-2.7-6.2v-99.6c0,2.4,0.9,4.4,2.7,6.1C-609.2,215.2-607.1,216.1-604.6,216.1z"/>
<path d="M-517.2,73l-4.8-9.3l-4.9,9.3l-9.4-17.8l5.2-9.9c1.7-3.6,4.5-5.3,8.4-5.3c3.4,0,6.1,1.4,7.9,4.2l6.2,12.1L-517.2,73z"/>
<path d="M-434.4,313.2c-1.7,1.6-3.8,2.4-6.3,2.4c-3.6,0-6.3-1.5-8.1-4.5l-59.7-115.5l8.6-16.7l49.9,97.5v-69.1
	c0,2.4,0.9,4.4,2.7,6.1c1.8,1.7,4,2.6,6.6,2.6c2.5,0,4.6-0.9,6.3-2.6c1.7-1.7,2.6-3.7,2.6-6.1V307
	C-431.9,309.5-432.7,311.6-434.4,313.2z"/>
<circle class="st3" cx="-433.9" cy="390" r="121"/>
<g>
	<polygon points="-588,714.4 -648.9,672 -638.9,628 -653.9,584 -588.2,540.6 -588.1,627.5 	"/>
	<polygon points="-454.9,703.4 -394,661 -404,617 -389,573 -454.6,529.6 -454.7,616.5 	"/>
	<polygon points="-444.9,725 -497.9,629 -520.9,667 -542.9,625 -584.9,706 -520.2,725.6 	"/>
	<polygon points="-444.9,511.6 -497.9,607.6 -520.9,569.6 -542.9,611.6 -584.9,530.6 -520.2,511 	"/>
</g>
<g>
	<polygon class="st4" points="39.1,151.5 39.1,371.5 39.1,430.4 123.5,261.5 39.1,92.6 	"/>
	<polygon class="st4" points="352,371.5 352,151.5 352,88.1 267.2,261.5 352,434.9 	"/>
	<polygon class="st4" points="163.6,261.5 197.3,328.5 230.4,261.5 197.3,194.5 	"/>
	<path class="st5" d="M197.3,328.5l-33.7-67l-20.1,40l34.3,68.6c3.7,8,9.7,12,18,12c7.3,0,13-3.2,17-9.5l36-73.6l-18.5-37.4
		L197.3,328.5z"/>
	<path class="st5" d="M19.5,131.9c5.7,0,10.3,1.9,14,5.8c3.7,3.8,5.5,8.4,5.5,13.8V92.6l84.4,168.9l20-40L37.1,10
		C33,3.3,27.2,0,19.5,0C14.2,0,9.6,1.8,5.8,5.5C1.9,9.2,0,13.9,0,19.5v131.9c0-5.3,1.9-9.9,5.8-13.8
		C9.6,133.8,14.2,131.9,19.5,131.9z"/>
	<path class="st5" d="M385.6,5.5C381.9,1.8,377.4,0,372,0c-7.7,0-13.5,3.3-17.5,10L248.8,224.1l18.3,37.4L352,88.1v63.3
		c0-5.3,1.9-9.9,5.8-13.8c3.8-3.8,8.6-5.8,14.3-5.8c5.3,0,9.8,1.9,13.5,5.8c3.7,3.8,5.5,8.4,5.5,13.8V19.5
		C391.1,13.9,389.2,9.2,385.6,5.5z"/>
	<path class="st5" d="M197.3,194.5l33.1,67l18.5-37.4l-36-73.6c-4-6.3-9.7-9.5-17-9.5c-8.3,0-14.4,4-18,12l-34.3,68.6l20.1,40
		L197.3,194.5z"/>
	<path class="st5" d="M372,391.1c-5.7,0-10.4-1.9-14.3-5.8c-3.8-3.8-5.8-8.4-5.8-13.8v63.3l-84.9-173.4l-18.3,37.4L354.5,513
		c4,6.7,9.8,10,17.5,10c5.3,0,9.8-1.8,13.5-5.5c3.7-3.7,5.5-8.3,5.5-14V371.5c0,5.3-1.8,9.9-5.5,13.8
		C381.9,389.2,377.4,391.1,372,391.1z"/>
	<path class="st5" d="M39.1,430.4v-58.8c0,5.3-1.8,9.9-5.5,13.8c-3.7,3.8-8.3,5.8-14,5.8c-5.3,0-9.9-1.9-13.8-5.8
		c-3.8-3.8-5.8-8.4-5.8-13.8v131.9c0,5.7,1.9,10.3,5.8,14c3.8,3.7,8.4,5.5,13.8,5.5c7.7,0,13.5-3.3,17.5-10l106.4-211.5l-20-40
		L39.1,430.4z"/>
	<path class="st6" d="M372,131.9c-5.7,0-10.4,1.9-14.3,5.8c-3.8,3.8-5.8,8.4-5.8,13.8v220.1c0,5.3,1.9,9.9,5.8,13.8
		c3.8,3.8,8.6,5.8,14.3,5.8c5.3,0,9.8-1.9,13.5-5.8c3.7-3.8,5.5-8.4,5.5-13.8V151.5c0-5.3-1.8-9.9-5.5-13.8
		C381.9,133.8,377.4,131.9,372,131.9z"/>
	<polygon class="st6" points="248.8,224.1 230.4,261.5 248.8,298.9 267.2,261.5 	"/>
	<polygon class="st6" points="143.5,221.5 123.5,261.5 143.5,301.5 163.6,261.5 	"/>
	<path class="st6" d="M19.5,391.1c5.7,0,10.3-1.9,14-5.8c3.7-3.8,5.5-8.4,5.5-13.8V151.5c0-5.3-1.8-9.9-5.5-13.8
		c-3.7-3.8-8.3-5.8-14-5.8c-5.3,0-9.9,1.9-13.8,5.8c-3.8,3.8-5.8,8.4-5.8,13.8v220.1c0,5.3,1.9,9.9,5.8,13.8
		C9.6,389.2,14.2,391.1,19.5,391.1z"/>
</g>
</svg>
